<?xml version="1.0" encoding="utf-8"?>
<!-- Generator: Adobe Illustrator 16.0.0, SVG Export Plug-In . SVG Version: 6.00 Build 0)  -->
<!DOCTYPE svg PUBLIC "-//W3C//DTD SVG 1.1//EN" "http://www.w3.org/Graphics/SVG/1.1/DTD/svg11.dtd">
<svg version="1.1" id="Capa_1" xmlns="http://www.w3.org/2000/svg" xmlns:xlink="http://www.w3.org/1999/xlink" x="0px" y="0px"
	 width="636px" height="323.855px" viewBox="0 0 636 323.855" enable-background="new 0 0 636 323.855" xml:space="preserve">
<path fill="#FFFFFF" d="M-1745.102-383.803"/>
<g>
	<rect x="1.987" y="-344.494" fill="#395EA3" width="636" height="325.27"/>
	<polygon fill="#FFFFFF" points="29.084,-228.994 115.216,-162.994 74.582,-274.603 	"/>
	<polygon fill="#FFFFFF" points="81.332,-274.603 101.832,-217.424 218.52,-274.603 	"/>
	<polygon fill="#FFFFFF" points="104.082,-212.494 219.707,-269.816 219.707,-212.494 	"/>
	<polygon fill="#FFFFFF" points="29.084,-221.595 137.352,-137.243 29.084,-41.628 	"/>
	<polygon fill="#FFFFFF" points="78.832,-280.911 218.52,-280.911 30.975,-323.504 	"/>
	<g>
		<path fill="#FFFFFF" d="M268.687-156.173c-1.105-0.849-2.7-1.273-4.783-1.273c-2.7,0-4.957,1.273-6.77,3.819
			c-1.813,2.546-2.72,6.018-2.72,10.415v20.136h-6.326v-39.5h6.326v8.139h0.154c0.899-2.777,2.276-4.943,4.128-6.5
			c1.852-1.556,3.921-2.334,6.21-2.334c1.646,0,2.905,0.18,3.78,0.54V-156.173z"/>
		<path fill="#FFFFFF" d="M303.827-123.076h-6.326v-6.172h-0.154c-2.752,4.732-6.802,7.098-12.15,7.098
			c-3.935,0-7.015-1.041-9.238-3.125c-2.225-2.082-3.337-4.847-3.337-8.293c0-7.38,4.346-11.675,13.038-12.884l11.842-1.659
			c0-6.712-2.713-10.068-8.139-10.068c-4.758,0-9.053,1.62-12.884,4.86v-6.48c3.883-2.469,8.357-3.703,13.424-3.703
			c9.283,0,13.925,4.912,13.925,14.735V-123.076z M297.501-143.058l-9.527,1.312c-2.932,0.412-5.144,1.138-6.635,2.18
			c-1.492,1.041-2.237,2.887-2.237,5.535c0,1.929,0.688,3.504,2.063,4.726c1.375,1.222,3.208,1.832,5.497,1.832
			c3.138,0,5.729-1.1,7.772-3.298c2.045-2.199,3.066-4.982,3.066-8.352V-143.058z"/>
		<path fill="#FFFFFF" d="M348.535-123.076h-8.872l-17.436-18.979h-0.154v18.979h-6.326v-58.479h6.326v37.07h0.154l16.587-18.091
			h8.293l-18.322,19.056L348.535-123.076z"/>
		<path fill="#FFFFFF" d="M369.943-122.15c-5.838,0-10.499-1.845-13.983-5.535c-3.484-3.69-5.227-8.583-5.227-14.678
			c0-6.635,1.813-11.816,5.439-15.545c3.625-3.729,8.524-5.593,14.696-5.593c5.889,0,10.485,1.813,13.79,5.439
			s4.957,8.654,4.957,15.083c0,6.301-1.781,11.348-5.343,15.141S375.935-122.15,369.943-122.15z M370.406-158.179
			c-4.063,0-7.278,1.383-9.644,4.146c-2.366,2.765-3.549,6.577-3.549,11.438c0,4.681,1.195,8.371,3.588,11.071
			c2.391,2.7,5.593,4.05,9.604,4.05c4.089,0,7.232-1.324,9.432-3.973c2.198-2.648,3.298-6.416,3.298-11.302
			c0-4.938-1.1-8.743-3.298-11.418C377.639-156.841,374.495-158.179,370.406-158.179z"/>
		<path fill="#FFFFFF" d="M433.282-172.528h-15.97v49.452h-6.48v-49.452h-15.931v-5.863h38.381V-172.528z"/>
		<path fill="#FFFFFF" d="M444.354-172.605c-1.132,0-2.097-0.386-2.894-1.157s-1.195-1.749-1.195-2.932
			c0-1.183,0.398-2.166,1.195-2.951c0.797-0.784,1.762-1.176,2.894-1.176c1.157,0,2.141,0.393,2.951,1.176
			c0.81,0.785,1.215,1.769,1.215,2.951c0,1.132-0.405,2.096-1.215,2.893C446.494-173.004,445.511-172.605,444.354-172.605z
			 M447.439-123.076h-6.326v-39.5h6.326V-123.076z"/>
		<path fill="#FFFFFF" d="M487.171-124.889c-3.035,1.825-6.635,2.738-10.801,2.738c-5.632,0-10.178-1.832-13.636-5.497
			c-3.459-3.664-5.188-8.415-5.188-14.253c0-6.506,1.864-11.732,5.594-15.681c3.728-3.947,8.704-5.921,14.928-5.921
			c3.472,0,6.531,0.643,9.181,1.929v6.48c-2.932-2.057-6.069-3.086-9.412-3.086c-4.038,0-7.349,1.446-9.933,4.34
			c-2.585,2.893-3.877,6.692-3.877,11.398c0,4.629,1.215,8.281,3.646,10.955c2.43,2.675,5.689,4.012,9.778,4.012
			c3.445,0,6.686-1.144,9.721-3.433V-124.889z"/>
	</g>
	<g>
		<path fill="#FFFFFF" d="M254.96-93.237h-14.822c0.055,2.338,0.684,4.143,1.886,5.414c1.203,1.271,2.856,1.907,4.962,1.907
			c2.364,0,4.537-0.779,6.519-2.338v3.158c-1.845,1.34-4.284,2.01-7.318,2.01c-2.966,0-5.296-0.953-6.991-2.861
			c-1.694-1.906-2.542-4.59-2.542-8.049c0-3.268,0.926-5.93,2.778-7.988c1.852-2.057,4.151-3.086,6.898-3.086
			s4.872,0.889,6.376,2.666c1.503,1.777,2.255,4.245,2.255,7.403V-93.237z M251.516-96.088c-0.014-1.941-0.481-3.452-1.404-4.532
			s-2.204-1.62-3.844-1.62c-1.586,0-2.932,0.567-4.039,1.702c-1.106,1.135-1.79,2.618-2.05,4.45H251.516z"/>
		<path fill="#FFFFFF" d="M258.772-84.337v-3.609c1.831,1.354,3.848,2.03,6.048,2.03c2.952,0,4.428-0.984,4.428-2.953
			c0-0.561-0.126-1.035-0.379-1.426c-0.253-0.389-0.595-0.734-1.025-1.035c-0.43-0.301-0.936-0.57-1.517-0.811
			c-0.581-0.238-1.206-0.488-1.876-0.748c-0.93-0.369-1.746-0.741-2.449-1.117c-0.704-0.376-1.292-0.801-1.764-1.271
			c-0.472-0.473-0.827-1.009-1.065-1.61c-0.239-0.602-0.359-1.306-0.359-2.112c0-0.984,0.226-1.855,0.677-2.615
			c0.451-0.758,1.052-1.395,1.804-1.906c0.752-0.514,1.609-0.899,2.573-1.159s1.958-0.39,2.982-0.39c1.817,0,3.444,0.314,4.88,0.943
			v3.404c-1.545-1.012-3.321-1.518-5.33-1.518c-0.629,0-1.196,0.072-1.702,0.215c-0.506,0.145-0.939,0.346-1.302,0.605
			s-0.643,0.571-0.841,0.934s-0.297,0.762-0.297,1.199c0,0.547,0.099,1.005,0.297,1.374s0.489,0.697,0.872,0.984
			c0.382,0.287,0.847,0.547,1.394,0.779s1.169,0.485,1.865,0.759c0.93,0.355,1.764,0.722,2.502,1.098
			c0.737,0.376,1.366,0.799,1.886,1.271c0.52,0.471,0.919,1.015,1.199,1.63s0.42,1.347,0.42,2.194c0,1.039-0.229,1.941-0.687,2.707
			s-1.069,1.401-1.835,1.907s-1.646,0.882-2.645,1.128s-2.043,0.369-3.137,0.369C262.23-83.086,260.358-83.503,258.772-84.337z"/>
		<path fill="#FFFFFF" d="M292.886-83.578h-3.361v-3.281h-0.082c-1.463,2.516-3.615,3.773-6.458,3.773
			c-2.091,0-3.728-0.554-4.91-1.661c-1.182-1.107-1.773-2.577-1.773-4.409c0-3.924,2.31-6.207,6.93-6.85l6.294-0.882
			c0-3.568-1.442-5.353-4.326-5.353c-2.528,0-4.811,0.861-6.847,2.584v-3.445c2.063-1.313,4.441-1.969,7.134-1.969
			c4.934,0,7.4,2.611,7.4,7.834V-83.578z M289.524-94.201l-5.064,0.697c-1.558,0.219-2.733,0.605-3.525,1.158
			c-0.793,0.555-1.189,1.535-1.189,2.943c0,1.025,0.365,1.863,1.097,2.512c0.731,0.65,1.705,0.975,2.922,0.975
			c1.667,0,3.044-0.584,4.131-1.754c1.086-1.168,1.63-2.648,1.63-4.439V-94.201z"/>
		<path fill="#FFFFFF" d="M310.168-101.174c-0.588-0.451-1.436-0.677-2.542-0.677c-1.436,0-2.635,0.677-3.598,2.03
			c-0.964,1.354-1.445,3.199-1.445,5.537v10.705h-3.362v-21h3.362v4.327h0.082c0.478-1.477,1.209-2.628,2.193-3.456
			c0.983-0.826,2.084-1.24,3.301-1.24c0.874,0,1.544,0.096,2.009,0.287V-101.174z"/>
		<path fill="#FFFFFF" d="M324.765-101.174c-0.588-0.451-1.436-0.677-2.542-0.677c-1.436,0-2.635,0.677-3.598,2.03
			c-0.964,1.354-1.445,3.199-1.445,5.537v10.705h-3.362v-21h3.362v4.327h0.082c0.478-1.477,1.209-2.628,2.193-3.456
			c0.983-0.826,2.084-1.24,3.301-1.24c0.874,0,1.544,0.096,2.009,0.287V-101.174z"/>
		<path fill="#FFFFFF" d="M336.635-83.086c-3.103,0-5.58-0.98-7.432-2.943c-1.853-1.961-2.778-4.563-2.778-7.803
			c0-3.527,0.964-6.282,2.891-8.265c1.928-1.982,4.531-2.974,7.811-2.974c3.13,0,5.573,0.964,7.329,2.892s2.635,4.601,2.635,8.019
			c0,3.35-0.946,6.033-2.84,8.049C342.357-84.094,339.818-83.086,336.635-83.086z M336.881-102.24c-2.16,0-3.868,0.735-5.126,2.205
			c-1.257,1.47-1.886,3.496-1.886,6.08c0,2.488,0.636,4.45,1.906,5.886c1.271,1.436,2.973,2.153,5.105,2.153
			c2.173,0,3.844-0.704,5.012-2.112c1.169-1.408,1.753-3.411,1.753-6.009c0-2.625-0.584-4.648-1.753-6.07
			C340.725-101.529,339.054-102.24,336.881-102.24z"/>
		<path fill="#FFFFFF" d="M355.823-83.578h-3.362v-31.09h3.362V-83.578z"/>
		<path fill="#FFFFFF" d="M365.991-83.578h-3.362v-31.09h3.362V-83.578z"/>
		<path fill="#FFFFFF" d="M381.572-83.086c-3.103,0-5.58-0.98-7.432-2.943c-1.853-1.961-2.778-4.563-2.778-7.803
			c0-3.527,0.964-6.282,2.891-8.265c1.928-1.982,4.531-2.974,7.811-2.974c3.13,0,5.573,0.964,7.329,2.892s2.635,4.601,2.635,8.019
			c0,3.35-0.946,6.033-2.84,8.049C387.295-84.094,384.756-83.086,381.572-83.086z M381.818-102.24c-2.16,0-3.868,0.735-5.126,2.205
			c-1.257,1.47-1.886,3.496-1.886,6.08c0,2.488,0.636,4.45,1.906,5.886c1.271,1.436,2.973,2.153,5.105,2.153
			c2.173,0,3.844-0.704,5.012-2.112c1.169-1.408,1.753-3.411,1.753-6.009c0-2.625-0.584-4.648-1.753-6.07
			C385.662-101.529,383.991-102.24,381.818-102.24z"/>
		<path fill="#FFFFFF" d="M415.664-112.986v2.953h-2.87v23.502h2.87v2.953h-9.184v-2.953h2.87v-23.502h-2.87v-2.953H415.664z"/>
		<path fill="#FFFFFF" d="M437.498-83.578h-3.362v-11.977c0-4.457-1.627-6.686-4.88-6.686c-1.681,0-3.071,0.633-4.172,1.896
			c-1.1,1.266-1.649,2.861-1.649,4.789v11.977h-3.362v-21h3.362v3.486h0.082c1.585-2.652,3.881-3.979,6.888-3.979
			c2.296,0,4.052,0.742,5.269,2.225c1.217,1.484,1.825,3.627,1.825,6.43V-83.578z"/>
		<path fill="#FFFFFF" d="M454.205-111.715c-0.656-0.369-1.401-0.554-2.234-0.554c-2.351,0-3.526,1.483-3.526,4.45v3.24h4.92v2.871
			h-4.92v18.129h-3.342v-18.129h-3.587v-2.871h3.587v-3.404c0-2.201,0.636-3.94,1.907-5.22c1.271-1.277,2.856-1.917,4.756-1.917
			c1.025,0,1.838,0.123,2.439,0.369V-111.715z"/>
		<path fill="#FFFFFF" d="M465.747-83.086c-3.103,0-5.58-0.98-7.432-2.943c-1.853-1.961-2.778-4.563-2.778-7.803
			c0-3.527,0.964-6.282,2.891-8.265c1.928-1.982,4.531-2.974,7.811-2.974c3.13,0,5.573,0.964,7.329,2.892s2.635,4.601,2.635,8.019
			c0,3.35-0.946,6.033-2.84,8.049C471.47-84.094,468.931-83.086,465.747-83.086z M465.993-102.24c-2.16,0-3.868,0.735-5.126,2.205
			c-1.257,1.47-1.886,3.496-1.886,6.08c0,2.488,0.636,4.45,1.906,5.886c1.271,1.436,2.973,2.153,5.105,2.153
			c2.173,0,3.844-0.704,5.012-2.112c1.169-1.408,1.753-3.411,1.753-6.009c0-2.625-0.584-4.648-1.753-6.07
			C469.837-101.529,468.166-102.24,465.993-102.24z"/>
		<path fill="#FFFFFF" d="M492.521-101.174c-0.588-0.451-1.436-0.677-2.542-0.677c-1.436,0-2.635,0.677-3.598,2.03
			c-0.964,1.354-1.445,3.199-1.445,5.537v10.705h-3.362v-21h3.362v4.327h0.082c0.478-1.477,1.209-2.628,2.193-3.456
			c0.983-0.826,2.084-1.24,3.301-1.24c0.874,0,1.544,0.096,2.009,0.287V-101.174z"/>
		<path fill="#FFFFFF" d="M525.896-83.578h-3.362v-12.059c0-2.324-0.358-4.006-1.076-5.045s-1.924-1.559-3.618-1.559
			c-1.436,0-2.655,0.656-3.659,1.969c-1.005,1.313-1.507,2.885-1.507,4.717v11.977h-3.362v-12.469c0-4.129-1.593-6.193-4.776-6.193
			c-1.477,0-2.693,0.619-3.649,1.855c-0.957,1.238-1.435,2.848-1.435,4.83v11.977h-3.362v-21h3.362v3.322h0.082
			c1.489-2.543,3.662-3.814,6.519-3.814c1.436,0,2.686,0.4,3.752,1.199c1.065,0.801,1.797,1.85,2.193,3.148
			c1.559-2.898,3.882-4.348,6.971-4.348c4.619,0,6.929,2.851,6.929,8.552V-83.578z"/>
		<path fill="#FFFFFF" d="M547.277-83.578h-3.361v-3.281h-0.082c-1.463,2.516-3.615,3.773-6.458,3.773
			c-2.091,0-3.728-0.554-4.91-1.661c-1.182-1.107-1.773-2.577-1.773-4.409c0-3.924,2.31-6.207,6.93-6.85l6.294-0.882
			c0-3.568-1.442-5.353-4.326-5.353c-2.528,0-4.811,0.861-6.847,2.584v-3.445c2.063-1.313,4.441-1.969,7.134-1.969
			c4.934,0,7.4,2.611,7.4,7.834V-83.578z M543.916-94.201l-5.064,0.697c-1.558,0.219-2.733,0.605-3.525,1.158
			c-0.793,0.555-1.189,1.535-1.189,2.943c0,1.025,0.365,1.863,1.097,2.512c0.731,0.65,1.705,0.975,2.922,0.975
			c1.667,0,3.044-0.584,4.131-1.754c1.086-1.168,1.63-2.648,1.63-4.439V-94.201z M544.366-115.283l-5.371,6.727h-2.604l4.572-6.727
			H544.366z"/>
		<path fill="#FFFFFF" d="M563.351-83.783c-0.793,0.438-1.838,0.656-3.137,0.656c-3.676,0-5.515-2.051-5.515-6.152v-12.428h-3.607
			v-2.871h3.607v-5.127l3.362-1.087v6.214h5.289v2.871h-5.289v11.833c0,1.408,0.239,2.413,0.718,3.015s1.271,0.902,2.378,0.902
			c0.848,0,1.579-0.232,2.193-0.697V-83.783z"/>
		<path fill="#FFFFFF" d="M569.563-109.91c-0.602,0-1.114-0.205-1.537-0.615c-0.424-0.41-0.636-0.93-0.636-1.559
			s0.212-1.151,0.636-1.569c0.423-0.416,0.936-0.625,1.537-0.625c0.615,0,1.138,0.209,1.568,0.625
			c0.431,0.418,0.646,0.94,0.646,1.569c0,0.602-0.215,1.114-0.646,1.538S570.178-109.91,569.563-109.91z M571.203-83.578h-3.362v-21
			h3.362V-83.578z"/>
		<path fill="#FFFFFF" d="M592.318-84.542c-1.613,0.971-3.526,1.456-5.74,1.456c-2.993,0-5.409-0.975-7.247-2.922
			c-1.839-1.949-2.758-4.475-2.758-7.578c0-3.459,0.991-6.237,2.973-8.336s4.626-3.148,7.934-3.148c1.846,0,3.472,0.342,4.88,1.025
			v3.445c-1.559-1.094-3.226-1.641-5.003-1.641c-2.146,0-3.905,0.77-5.278,2.307c-1.374,1.539-2.061,3.559-2.061,6.061
			c0,2.461,0.646,4.402,1.938,5.824c1.291,1.422,3.023,2.133,5.197,2.133c1.831,0,3.553-0.608,5.166-1.825V-84.542z"/>
		<path fill="#FFFFFF" d="M606.177-83.086c-3.103,0-5.58-0.98-7.432-2.943c-1.853-1.961-2.778-4.563-2.778-7.803
			c0-3.527,0.964-6.282,2.891-8.265c1.928-1.982,4.531-2.974,7.811-2.974c3.13,0,5.573,0.964,7.329,2.892s2.635,4.601,2.635,8.019
			c0,3.35-0.946,6.033-2.84,8.049C611.899-84.094,609.36-83.086,606.177-83.086z M606.423-102.24c-2.16,0-3.868,0.735-5.126,2.205
			c-1.257,1.47-1.886,3.496-1.886,6.08c0,2.488,0.636,4.45,1.906,5.886c1.271,1.436,2.973,2.153,5.105,2.153
			c2.173,0,3.844-0.704,5.012-2.112c1.169-1.408,1.753-3.411,1.753-6.009c0-2.625-0.584-4.648-1.753-6.07
			C610.267-101.529,608.596-102.24,606.423-102.24z"/>
	</g>
	<g>
		<path fill="#FFFFFF" d="M151.732-82.593v-109.835h29.197c37.259,0,55.888,17.846,55.888,53.539
			c0,16.954-5.174,30.574-15.52,40.863c-10.348,10.29-24.196,15.434-41.548,15.434H151.732z M164.119-180.786v86.551h15.778
			c13.861,0,24.65-3.854,32.368-11.565c7.716-7.71,11.575-18.637,11.575-32.782c0-28.135-14.402-42.203-43.206-42.203H164.119z"/>
	</g>
	<g>
		<path fill="#FFFFFF" d="M499.359-124.023v-6.21c0.626,0.627,1.376,1.192,2.251,1.694s1.796,0.925,2.763,1.27
			c0.967,0.345,1.938,0.612,2.914,0.8c0.977,0.188,1.879,0.282,2.707,0.282c2.854,0,4.986-0.601,6.396-1.804
			c1.409-1.202,2.113-2.933,2.113-5.191c0-1.213-0.234-2.269-0.704-3.168c-0.47-0.898-1.119-1.72-1.948-2.462
			c-0.828-0.742-1.809-1.453-2.941-2.133c-1.133-0.679-2.354-1.396-3.66-2.148c-1.382-0.794-2.671-1.6-3.868-2.415
			s-2.237-1.714-3.121-2.698c-0.884-0.982-1.579-2.096-2.086-3.34s-0.76-2.703-0.76-4.375c0-2.049,0.396-3.832,1.188-5.348
			c0.791-1.516,1.832-2.765,3.121-3.749c1.289-0.982,2.758-1.714,4.406-2.195s3.329-0.722,5.042-0.722
			c3.903,0,6.749,0.533,8.535,1.6v5.928c-2.339-1.84-5.341-2.76-9.005-2.76c-1.014,0-2.026,0.121-3.039,0.361
			c-1.013,0.241-1.916,0.633-2.707,1.176c-0.792,0.544-1.437,1.245-1.934,2.102c-0.497,0.858-0.746,1.903-0.746,3.137
			c0,1.15,0.188,2.144,0.566,2.98c0.377,0.836,0.935,1.6,1.671,2.29s1.635,1.359,2.693,2.007c1.059,0.648,2.279,1.36,3.66,2.133
			c1.418,0.795,2.763,1.631,4.033,2.509c1.271,0.878,2.385,1.851,3.343,2.917c0.957,1.066,1.717,2.248,2.279,3.544
			c0.562,1.297,0.843,2.781,0.843,4.454c0,2.217-0.383,4.093-1.146,5.63c-0.765,1.537-1.796,2.787-3.095,3.749
			c-1.298,0.962-2.794,1.658-4.488,2.086c-1.695,0.428-3.48,0.643-5.359,0.643c-0.626,0-1.399-0.058-2.32-0.173
			s-1.86-0.282-2.817-0.501c-0.958-0.22-1.865-0.491-2.722-0.816C500.561-123.265,499.875-123.626,499.359-124.023z"/>
		<path fill="#FFFFFF" d="M532.232-121.514c-0.848,0-1.57-0.345-2.168-1.035c-0.6-0.69-0.898-1.516-0.898-2.478
			s0.299-1.793,0.898-2.494c0.598-0.701,1.32-1.051,2.168-1.051c0.865,0,1.603,0.35,2.21,1.051s0.912,1.532,0.912,2.494
			s-0.305,1.788-0.912,2.478C533.835-121.859,533.098-121.514,532.232-121.514z"/>
		<path fill="#FFFFFF" d="M574.193-122.204h-5.138l-4.199-12.609h-16.796l-3.95,12.609h-5.166l15.193-44.979h4.807L574.193-122.204z
			 M563.337-139.55l-6.216-19.165c-0.202-0.627-0.405-1.631-0.607-3.011h-0.11c-0.185,1.276-0.396,2.28-0.636,3.011l-6.16,19.165
			H563.337z"/>
		<path fill="#FFFFFF" d="M580.989-121.514c-0.848,0-1.57-0.345-2.168-1.035c-0.6-0.69-0.898-1.516-0.898-2.478
			s0.299-1.793,0.898-2.494c0.598-0.701,1.32-1.051,2.168-1.051c0.865,0,1.603,0.35,2.21,1.051s0.912,1.532,0.912,2.494
			s-0.305,1.788-0.912,2.478C582.592-121.859,581.854-121.514,580.989-121.514z"/>
		<path fill="#FFFFFF" d="M590.438-124.023v-6.21c0.626,0.627,1.376,1.192,2.251,1.694s1.796,0.925,2.763,1.27
			c0.967,0.345,1.938,0.612,2.914,0.8c0.977,0.188,1.879,0.282,2.707,0.282c2.854,0,4.986-0.601,6.396-1.804
			c1.409-1.202,2.113-2.933,2.113-5.191c0-1.213-0.234-2.269-0.704-3.168c-0.47-0.898-1.119-1.72-1.948-2.462
			c-0.828-0.742-1.809-1.453-2.941-2.133c-1.133-0.679-2.354-1.396-3.66-2.148c-1.382-0.794-2.671-1.6-3.868-2.415
			s-2.237-1.714-3.121-2.698c-0.884-0.982-1.579-2.096-2.086-3.34s-0.76-2.703-0.76-4.375c0-2.049,0.396-3.832,1.188-5.348
			c0.791-1.516,1.832-2.765,3.121-3.749c1.289-0.982,2.758-1.714,4.406-2.195s3.329-0.722,5.042-0.722
			c3.903,0,6.749,0.533,8.535,1.6v5.928c-2.339-1.84-5.341-2.76-9.005-2.76c-1.014,0-2.026,0.121-3.039,0.361
			c-1.013,0.241-1.916,0.633-2.707,1.176c-0.792,0.544-1.437,1.245-1.934,2.102c-0.497,0.858-0.746,1.903-0.746,3.137
			c0,1.15,0.188,2.144,0.566,2.98c0.377,0.836,0.935,1.6,1.671,2.29s1.635,1.359,2.693,2.007c1.059,0.648,2.279,1.36,3.66,2.133
			c1.418,0.795,2.763,1.631,4.033,2.509c1.271,0.878,2.385,1.851,3.343,2.917c0.957,1.066,1.717,2.248,2.279,3.544
			c0.562,1.297,0.843,2.781,0.843,4.454c0,2.217-0.383,4.093-1.146,5.63c-0.765,1.537-1.796,2.787-3.095,3.749
			c-1.298,0.962-2.794,1.658-4.488,2.086c-1.695,0.428-3.48,0.643-5.359,0.643c-0.626,0-1.399-0.058-2.32-0.173
			s-1.86-0.282-2.817-0.501c-0.958-0.22-1.865-0.491-2.722-0.816C591.639-123.265,590.953-123.626,590.438-124.023z"/>
	</g>
</g>
<g>
	<polygon fill="#395EA3" points="1435.084,-421.861 1521.216,-355.861 1480.582,-467.47 	"/>
	<polygon fill="#395EA3" points="1487.332,-467.47 1507.832,-410.291 1624.52,-467.47 	"/>
	<polygon fill="#395EA3" points="1510.082,-405.361 1625.707,-462.684 1625.707,-405.361 	"/>
	<polygon fill="#395EA3" points="1435.084,-414.462 1543.352,-330.11 1435.084,-234.495 	"/>
	<polygon fill="#395EA3" points="1484.832,-473.778 1624.52,-473.778 1436.975,-516.372 	"/>
	<g>
		<path fill="#395EA3" d="M1674.687-349.04c-1.105-0.849-2.7-1.273-4.783-1.273c-2.7,0-4.957,1.273-6.77,3.819
			c-1.813,2.546-2.72,6.018-2.72,10.415v20.136h-6.326v-39.5h6.326v8.139h0.154c0.899-2.777,2.276-4.943,4.128-6.5
			c1.852-1.556,3.921-2.334,6.21-2.334c1.646,0,2.905,0.18,3.78,0.54V-349.04z"/>
		<path fill="#395EA3" d="M1709.827-315.943h-6.326v-6.172h-0.154c-2.752,4.732-6.802,7.098-12.15,7.098
			c-3.935,0-7.015-1.041-9.238-3.125c-2.225-2.082-3.337-4.847-3.337-8.293c0-7.38,4.346-11.675,13.038-12.884l11.842-1.659
			c0-6.712-2.713-10.068-8.139-10.068c-4.758,0-9.053,1.62-12.884,4.86v-6.48c3.883-2.469,8.357-3.703,13.424-3.703
			c9.283,0,13.925,4.912,13.925,14.735V-315.943z M1703.501-335.925l-9.527,1.312c-2.932,0.412-5.144,1.138-6.635,2.18
			c-1.492,1.041-2.237,2.887-2.237,5.535c0,1.929,0.688,3.504,2.063,4.726c1.375,1.222,3.208,1.832,5.497,1.832
			c3.138,0,5.729-1.1,7.772-3.298c2.045-2.199,3.066-4.982,3.066-8.352V-335.925z"/>
		<path fill="#395EA3" d="M1754.535-315.943h-8.872l-17.436-18.979h-0.154v18.979h-6.326v-58.479h6.326v37.07h0.154l16.587-18.091
			h8.293l-18.322,19.056L1754.535-315.943z"/>
		<path fill="#395EA3" d="M1775.943-315.018c-5.838,0-10.499-1.845-13.983-5.535c-3.484-3.69-5.227-8.583-5.227-14.678
			c0-6.635,1.813-11.816,5.439-15.545c3.625-3.729,8.524-5.593,14.696-5.593c5.889,0,10.485,1.813,13.79,5.439
			s4.957,8.654,4.957,15.083c0,6.301-1.781,11.348-5.343,15.141S1781.935-315.018,1775.943-315.018z M1776.406-351.046
			c-4.063,0-7.278,1.383-9.644,4.146c-2.366,2.765-3.549,6.577-3.549,11.438c0,4.681,1.195,8.371,3.588,11.071
			c2.391,2.7,5.593,4.05,9.604,4.05c4.089,0,7.232-1.324,9.432-3.973c2.198-2.648,3.298-6.416,3.298-11.302
			c0-4.938-1.1-8.743-3.298-11.418C1783.639-349.708,1780.495-351.046,1776.406-351.046z"/>
		<path fill="#395EA3" d="M1839.282-365.396h-15.97v49.452h-6.48v-49.452h-15.931v-5.863h38.381V-365.396z"/>
		<path fill="#395EA3" d="M1850.354-365.473c-1.132,0-2.097-0.386-2.894-1.157s-1.195-1.749-1.195-2.932
			c0-1.183,0.398-2.166,1.195-2.951c0.797-0.784,1.762-1.176,2.894-1.176c1.157,0,2.141,0.393,2.951,1.176
			c0.81,0.785,1.215,1.769,1.215,2.951c0,1.132-0.405,2.096-1.215,2.893C1852.494-365.871,1851.511-365.473,1850.354-365.473z
			 M1853.439-315.943h-6.326v-39.5h6.326V-315.943z"/>
		<path fill="#395EA3" d="M1893.171-317.756c-3.035,1.825-6.635,2.738-10.801,2.738c-5.632,0-10.178-1.832-13.636-5.497
			c-3.459-3.664-5.188-8.415-5.188-14.253c0-6.506,1.864-11.732,5.594-15.681c3.728-3.947,8.704-5.921,14.928-5.921
			c3.472,0,6.531,0.643,9.181,1.929v6.48c-2.932-2.057-6.069-3.086-9.412-3.086c-4.038,0-7.349,1.446-9.933,4.34
			c-2.585,2.893-3.877,6.692-3.877,11.398c0,4.629,1.215,8.281,3.646,10.955c2.43,2.675,5.689,4.012,9.778,4.012
			c3.445,0,6.686-1.144,9.721-3.433V-317.756z"/>
	</g>
	<g>
		<path fill="#395EA3" d="M1657.96-289.104h-14.822c0.055,2.338,0.684,4.143,1.886,5.414c1.203,1.271,2.856,1.907,4.962,1.907
			c2.364,0,4.537-0.779,6.519-2.338v3.158c-1.845,1.34-4.284,2.01-7.318,2.01c-2.966,0-5.296-0.953-6.991-2.861
			c-1.694-1.906-2.542-4.59-2.542-8.049c0-3.268,0.926-5.93,2.778-7.988c1.852-2.057,4.151-3.086,6.898-3.086
			s4.872,0.889,6.376,2.666c1.503,1.777,2.255,4.245,2.255,7.403V-289.104z M1654.516-291.955c-0.014-1.941-0.481-3.452-1.404-4.532
			s-2.204-1.62-3.844-1.62c-1.586,0-2.932,0.567-4.039,1.702c-1.106,1.135-1.79,2.618-2.05,4.45H1654.516z"/>
		<path fill="#395EA3" d="M1661.772-280.204v-3.609c1.831,1.354,3.848,2.03,6.048,2.03c2.952,0,4.428-0.984,4.428-2.953
			c0-0.561-0.126-1.035-0.379-1.426c-0.253-0.389-0.595-0.734-1.025-1.035c-0.43-0.301-0.936-0.57-1.517-0.811
			c-0.581-0.238-1.206-0.488-1.876-0.748c-0.93-0.369-1.746-0.741-2.449-1.117c-0.704-0.376-1.292-0.801-1.764-1.271
			c-0.472-0.473-0.827-1.009-1.065-1.61c-0.239-0.602-0.359-1.306-0.359-2.112c0-0.984,0.226-1.855,0.677-2.615
			c0.451-0.758,1.052-1.395,1.804-1.906c0.752-0.514,1.609-0.899,2.573-1.159s1.958-0.39,2.982-0.39c1.817,0,3.444,0.314,4.88,0.943
			v3.404c-1.545-1.012-3.321-1.518-5.33-1.518c-0.629,0-1.196,0.072-1.702,0.215c-0.506,0.145-0.939,0.346-1.302,0.605
			s-0.643,0.571-0.841,0.934s-0.297,0.762-0.297,1.199c0,0.547,0.099,1.005,0.297,1.374s0.489,0.697,0.872,0.984
			c0.382,0.287,0.847,0.547,1.394,0.779s1.169,0.485,1.865,0.759c0.93,0.355,1.764,0.722,2.502,1.098
			c0.737,0.376,1.366,0.799,1.886,1.271c0.52,0.471,0.919,1.015,1.199,1.63s0.42,1.347,0.42,2.194c0,1.039-0.229,1.941-0.687,2.707
			s-1.069,1.401-1.835,1.907s-1.646,0.882-2.645,1.128s-2.043,0.369-3.137,0.369C1665.23-278.953,1663.358-279.37,1661.772-280.204z
			"/>
		<path fill="#395EA3" d="M1695.886-279.445h-3.361v-3.281h-0.082c-1.463,2.516-3.615,3.773-6.458,3.773
			c-2.091,0-3.728-0.554-4.91-1.661c-1.182-1.107-1.773-2.577-1.773-4.409c0-3.924,2.31-6.207,6.93-6.85l6.294-0.882
			c0-3.568-1.442-5.353-4.326-5.353c-2.528,0-4.811,0.861-6.847,2.584v-3.445c2.063-1.313,4.441-1.969,7.134-1.969
			c4.934,0,7.4,2.611,7.4,7.834V-279.445z M1692.524-290.068l-5.064,0.697c-1.558,0.219-2.733,0.605-3.525,1.158
			c-0.793,0.555-1.189,1.535-1.189,2.943c0,1.025,0.365,1.863,1.097,2.512c0.731,0.65,1.705,0.975,2.922,0.975
			c1.667,0,3.044-0.584,4.131-1.754c1.086-1.168,1.63-2.648,1.63-4.439V-290.068z"/>
		<path fill="#395EA3" d="M1713.168-297.041c-0.588-0.451-1.436-0.677-2.542-0.677c-1.436,0-2.635,0.677-3.598,2.03
			c-0.964,1.354-1.445,3.199-1.445,5.537v10.705h-3.362v-21h3.362v4.327h0.082c0.478-1.477,1.209-2.628,2.193-3.456
			c0.983-0.826,2.084-1.24,3.301-1.24c0.874,0,1.544,0.096,2.009,0.287V-297.041z"/>
		<path fill="#395EA3" d="M1727.765-297.041c-0.588-0.451-1.436-0.677-2.542-0.677c-1.436,0-2.635,0.677-3.598,2.03
			c-0.964,1.354-1.445,3.199-1.445,5.537v10.705h-3.362v-21h3.362v4.327h0.082c0.478-1.477,1.209-2.628,2.193-3.456
			c0.983-0.826,2.084-1.24,3.301-1.24c0.874,0,1.544,0.096,2.009,0.287V-297.041z"/>
		<path fill="#395EA3" d="M1739.635-278.953c-3.103,0-5.58-0.98-7.432-2.943c-1.853-1.961-2.778-4.563-2.778-7.803
			c0-3.527,0.964-6.282,2.891-8.265c1.928-1.982,4.531-2.974,7.811-2.974c3.13,0,5.573,0.964,7.329,2.892s2.635,4.601,2.635,8.019
			c0,3.35-0.946,6.033-2.84,8.049C1745.357-279.961,1742.818-278.953,1739.635-278.953z M1739.881-298.107
			c-2.16,0-3.868,0.735-5.126,2.205c-1.257,1.47-1.886,3.496-1.886,6.08c0,2.488,0.636,4.45,1.906,5.886
			c1.271,1.436,2.973,2.153,5.105,2.153c2.173,0,3.844-0.704,5.012-2.112c1.169-1.408,1.753-3.411,1.753-6.009
			c0-2.625-0.584-4.648-1.753-6.07C1743.725-297.396,1742.054-298.107,1739.881-298.107z"/>
		<path fill="#395EA3" d="M1758.823-279.445h-3.362v-31.09h3.362V-279.445z"/>
		<path fill="#395EA3" d="M1768.991-279.445h-3.362v-31.09h3.362V-279.445z"/>
		<path fill="#395EA3" d="M1784.572-278.953c-3.103,0-5.58-0.98-7.432-2.943c-1.853-1.961-2.778-4.563-2.778-7.803
			c0-3.527,0.964-6.282,2.891-8.265c1.928-1.982,4.531-2.974,7.811-2.974c3.13,0,5.573,0.964,7.329,2.892s2.635,4.601,2.635,8.019
			c0,3.35-0.946,6.033-2.84,8.049C1790.295-279.961,1787.756-278.953,1784.572-278.953z M1784.818-298.107
			c-2.16,0-3.868,0.735-5.126,2.205c-1.257,1.47-1.886,3.496-1.886,6.08c0,2.488,0.636,4.45,1.906,5.886
			c1.271,1.436,2.973,2.153,5.105,2.153c2.173,0,3.844-0.704,5.012-2.112c1.169-1.408,1.753-3.411,1.753-6.009
			c0-2.625-0.584-4.648-1.753-6.07C1788.662-297.396,1786.991-298.107,1784.818-298.107z"/>
		<path fill="#395EA3" d="M1818.664-308.854v2.953h-2.87v23.502h2.87v2.953h-9.184v-2.953h2.87V-305.9h-2.87v-2.953H1818.664z"/>
		<path fill="#395EA3" d="M1840.498-279.445h-3.362v-11.977c0-4.457-1.627-6.686-4.88-6.686c-1.681,0-3.071,0.633-4.172,1.896
			c-1.1,1.266-1.649,2.861-1.649,4.789v11.977h-3.362v-21h3.362v3.486h0.082c1.585-2.652,3.881-3.979,6.888-3.979
			c2.296,0,4.052,0.742,5.269,2.225c1.217,1.484,1.825,3.627,1.825,6.43V-279.445z"/>
		<path fill="#395EA3" d="M1857.205-307.582c-0.656-0.369-1.401-0.554-2.234-0.554c-2.351,0-3.526,1.483-3.526,4.45v3.24h4.92v2.871
			h-4.92v18.129h-3.342v-18.129h-3.587v-2.871h3.587v-3.404c0-2.201,0.636-3.94,1.907-5.219c1.271-1.278,2.856-1.917,4.756-1.917
			c1.025,0,1.838,0.123,2.439,0.369V-307.582z"/>
		<path fill="#395EA3" d="M1868.747-278.953c-3.103,0-5.58-0.98-7.432-2.943c-1.853-1.961-2.778-4.563-2.778-7.803
			c0-3.527,0.964-6.282,2.891-8.265c1.928-1.982,4.531-2.974,7.811-2.974c3.13,0,5.573,0.964,7.329,2.892s2.635,4.601,2.635,8.019
			c0,3.35-0.946,6.033-2.84,8.049C1874.47-279.961,1871.931-278.953,1868.747-278.953z M1868.993-298.107
			c-2.16,0-3.868,0.735-5.126,2.205c-1.257,1.47-1.886,3.496-1.886,6.08c0,2.488,0.636,4.45,1.906,5.886
			c1.271,1.436,2.973,2.153,5.105,2.153c2.173,0,3.844-0.704,5.012-2.112c1.169-1.408,1.753-3.411,1.753-6.009
			c0-2.625-0.584-4.648-1.753-6.07C1872.837-297.396,1871.166-298.107,1868.993-298.107z"/>
		<path fill="#395EA3" d="M1895.521-297.041c-0.588-0.451-1.436-0.677-2.542-0.677c-1.436,0-2.635,0.677-3.598,2.03
			c-0.964,1.354-1.445,3.199-1.445,5.537v10.705h-3.362v-21h3.362v4.327h0.082c0.478-1.477,1.209-2.628,2.193-3.456
			c0.983-0.826,2.084-1.24,3.301-1.24c0.874,0,1.544,0.096,2.009,0.287V-297.041z"/>
		<path fill="#395EA3" d="M1928.896-279.445h-3.362v-12.059c0-2.324-0.358-4.006-1.076-5.045s-1.924-1.559-3.618-1.559
			c-1.436,0-2.655,0.656-3.659,1.969c-1.005,1.313-1.507,2.885-1.507,4.717v11.977h-3.362v-12.469c0-4.129-1.593-6.193-4.776-6.193
			c-1.477,0-2.693,0.619-3.649,1.855c-0.957,1.238-1.435,2.848-1.435,4.83v11.977h-3.362v-21h3.362v3.322h0.082
			c1.489-2.543,3.662-3.814,6.519-3.814c1.436,0,2.686,0.4,3.752,1.199c1.065,0.801,1.797,1.85,2.193,3.148
			c1.559-2.898,3.882-4.348,6.971-4.348c4.619,0,6.929,2.851,6.929,8.552V-279.445z"/>
		<path fill="#395EA3" d="M1950.277-279.445h-3.361v-3.281h-0.082c-1.463,2.516-3.615,3.773-6.458,3.773
			c-2.091,0-3.728-0.554-4.91-1.661c-1.182-1.107-1.773-2.577-1.773-4.409c0-3.924,2.31-6.207,6.93-6.85l6.294-0.882
			c0-3.568-1.442-5.353-4.326-5.353c-2.528,0-4.811,0.861-6.847,2.584v-3.445c2.063-1.313,4.441-1.969,7.134-1.969
			c4.934,0,7.4,2.611,7.4,7.834V-279.445z M1946.916-290.068l-5.064,0.697c-1.558,0.219-2.733,0.605-3.525,1.158
			c-0.793,0.555-1.189,1.535-1.189,2.943c0,1.025,0.365,1.863,1.097,2.512c0.731,0.65,1.705,0.975,2.922,0.975
			c1.667,0,3.044-0.584,4.131-1.754c1.086-1.168,1.63-2.648,1.63-4.439V-290.068z M1947.366-311.15l-5.371,6.727h-2.604l4.572-6.727
			H1947.366z"/>
		<path fill="#395EA3" d="M1966.351-279.65c-0.793,0.438-1.838,0.656-3.137,0.656c-3.676,0-5.515-2.051-5.515-6.152v-12.428h-3.607
			v-2.871h3.607v-5.127l3.362-1.087v6.214h5.289v2.871h-5.289v11.833c0,1.408,0.239,2.413,0.718,3.015s1.271,0.902,2.378,0.902
			c0.848,0,1.579-0.232,2.193-0.697V-279.65z"/>
		<path fill="#395EA3" d="M1972.563-305.777c-0.602,0-1.114-0.205-1.537-0.615c-0.424-0.41-0.636-0.93-0.636-1.559
			s0.212-1.152,0.636-1.569c0.423-0.417,0.936-0.625,1.537-0.625c0.615,0,1.138,0.208,1.568,0.625s0.646,0.94,0.646,1.569
			c0,0.602-0.215,1.114-0.646,1.538S1973.178-305.777,1972.563-305.777z M1974.203-279.445h-3.362v-21h3.362V-279.445z"/>
		<path fill="#395EA3" d="M1995.318-280.409c-1.613,0.971-3.526,1.456-5.74,1.456c-2.993,0-5.409-0.975-7.247-2.922
			c-1.839-1.949-2.758-4.475-2.758-7.578c0-3.459,0.991-6.237,2.973-8.336s4.626-3.148,7.934-3.148c1.846,0,3.472,0.342,4.88,1.025
			v3.445c-1.559-1.094-3.226-1.641-5.003-1.641c-2.146,0-3.905,0.77-5.278,2.307c-1.374,1.539-2.061,3.559-2.061,6.061
			c0,2.461,0.646,4.402,1.938,5.824c1.291,1.422,3.023,2.133,5.197,2.133c1.831,0,3.553-0.608,5.166-1.825V-280.409z"/>
		<path fill="#395EA3" d="M2009.177-278.953c-3.103,0-5.58-0.98-7.432-2.943c-1.853-1.961-2.778-4.563-2.778-7.803
			c0-3.527,0.964-6.282,2.891-8.265c1.928-1.982,4.531-2.974,7.811-2.974c3.13,0,5.573,0.964,7.329,2.892s2.635,4.601,2.635,8.019
			c0,3.35-0.946,6.033-2.84,8.049C2014.899-279.961,2012.36-278.953,2009.177-278.953z M2009.423-298.107
			c-2.16,0-3.868,0.735-5.126,2.205c-1.257,1.47-1.886,3.496-1.886,6.08c0,2.488,0.636,4.45,1.906,5.886
			c1.271,1.436,2.973,2.153,5.105,2.153c2.173,0,3.844-0.704,5.012-2.112c1.169-1.408,1.753-3.411,1.753-6.009
			c0-2.625-0.584-4.648-1.753-6.07C2013.267-297.396,2011.596-298.107,2009.423-298.107z"/>
	</g>
	<g>
		<path fill="#395EA3" d="M1557.732-275.46v-109.835h29.197c37.259,0,55.888,17.846,55.888,53.539
			c0,16.954-5.174,30.574-15.52,40.863c-10.348,10.29-24.196,15.434-41.548,15.434H1557.732z M1570.119-373.653v86.551h15.778
			c13.861,0,24.65-3.854,32.368-11.565c7.716-7.71,11.575-18.637,11.575-32.782c0-28.135-14.402-42.203-43.206-42.203H1570.119z"/>
	</g>
	<g>
		<path fill="#395EA3" d="M1903.359-317.891v-6.21c0.626,0.627,1.376,1.192,2.251,1.694s1.796,0.925,2.763,1.27
			c0.967,0.345,1.938,0.612,2.914,0.8c0.977,0.188,1.879,0.282,2.707,0.282c2.854,0,4.986-0.601,6.396-1.804
			c1.409-1.202,2.113-2.933,2.113-5.191c0-1.213-0.234-2.269-0.704-3.168c-0.47-0.898-1.119-1.72-1.948-2.462
			c-0.828-0.742-1.809-1.453-2.941-2.133c-1.133-0.679-2.354-1.396-3.66-2.148c-1.382-0.794-2.671-1.6-3.868-2.415
			s-2.237-1.714-3.121-2.698c-0.884-0.982-1.579-2.096-2.086-3.34s-0.76-2.703-0.76-4.375c0-2.049,0.396-3.832,1.188-5.348
			c0.791-1.516,1.832-2.765,3.121-3.749c1.289-0.982,2.758-1.714,4.406-2.195s3.329-0.722,5.042-0.722
			c3.903,0,6.749,0.533,8.535,1.6v5.928c-2.339-1.84-5.341-2.76-9.005-2.76c-1.014,0-2.026,0.121-3.039,0.361
			c-1.013,0.241-1.916,0.633-2.707,1.176c-0.792,0.544-1.437,1.245-1.934,2.102c-0.497,0.858-0.746,1.903-0.746,3.137
			c0,1.15,0.188,2.144,0.566,2.98c0.377,0.836,0.935,1.6,1.671,2.29s1.635,1.359,2.693,2.007c1.059,0.648,2.279,1.36,3.66,2.133
			c1.418,0.795,2.763,1.631,4.033,2.509c1.271,0.878,2.385,1.851,3.343,2.917c0.957,1.066,1.717,2.248,2.279,3.544
			c0.562,1.297,0.843,2.781,0.843,4.454c0,2.217-0.383,4.093-1.146,5.63c-0.765,1.537-1.796,2.787-3.095,3.749
			c-1.298,0.962-2.794,1.658-4.488,2.086c-1.695,0.428-3.48,0.643-5.359,0.643c-0.626,0-1.399-0.058-2.32-0.173
			s-1.86-0.282-2.817-0.501c-0.958-0.22-1.865-0.491-2.722-0.816C1904.561-317.132,1903.875-317.493,1903.359-317.891z"/>
		<path fill="#395EA3" d="M1936.232-315.381c-0.848,0-1.57-0.345-2.168-1.035c-0.6-0.69-0.898-1.516-0.898-2.478
			s0.299-1.793,0.898-2.494c0.598-0.701,1.32-1.051,2.168-1.051c0.865,0,1.603,0.35,2.21,1.051s0.912,1.532,0.912,2.494
			s-0.305,1.788-0.912,2.478C1937.835-315.726,1937.098-315.381,1936.232-315.381z"/>
		<path fill="#395EA3" d="M1978.193-316.071h-5.138l-4.199-12.609h-16.796l-3.95,12.609h-5.166l15.193-44.979h4.807
			L1978.193-316.071z M1967.337-333.417l-6.216-19.165c-0.202-0.627-0.405-1.631-0.607-3.011h-0.11
			c-0.185,1.276-0.396,2.28-0.636,3.011l-6.16,19.165H1967.337z"/>
		<path fill="#395EA3" d="M1984.989-315.381c-0.848,0-1.57-0.345-2.168-1.035c-0.6-0.69-0.898-1.516-0.898-2.478
			s0.299-1.793,0.898-2.494c0.598-0.701,1.32-1.051,2.168-1.051c0.865,0,1.603,0.35,2.21,1.051s0.912,1.532,0.912,2.494
			s-0.305,1.788-0.912,2.478C1986.592-315.726,1985.854-315.381,1984.989-315.381z"/>
		<path fill="#395EA3" d="M1994.438-317.891v-6.21c0.626,0.627,1.376,1.192,2.251,1.694s1.796,0.925,2.763,1.27
			c0.967,0.345,1.938,0.612,2.914,0.8c0.977,0.188,1.879,0.282,2.707,0.282c2.854,0,4.986-0.601,6.396-1.804
			c1.409-1.202,2.113-2.933,2.113-5.191c0-1.213-0.234-2.269-0.704-3.168c-0.47-0.898-1.119-1.72-1.948-2.462
			c-0.828-0.742-1.809-1.453-2.941-2.133c-1.133-0.679-2.354-1.396-3.66-2.148c-1.382-0.794-2.671-1.6-3.868-2.415
			s-2.237-1.714-3.121-2.698c-0.884-0.982-1.579-2.096-2.086-3.34s-0.76-2.703-0.76-4.375c0-2.049,0.396-3.832,1.188-5.348
			c0.791-1.516,1.832-2.765,3.121-3.749c1.289-0.982,2.758-1.714,4.406-2.195s3.329-0.722,5.042-0.722
			c3.903,0,6.749,0.533,8.535,1.6v5.928c-2.339-1.84-5.341-2.76-9.005-2.76c-1.014,0-2.026,0.121-3.039,0.361
			c-1.013,0.241-1.916,0.633-2.707,1.176c-0.792,0.544-1.437,1.245-1.934,2.102c-0.497,0.858-0.746,1.903-0.746,3.137
			c0,1.15,0.188,2.144,0.566,2.98c0.377,0.836,0.935,1.6,1.671,2.29s1.635,1.359,2.693,2.007c1.059,0.648,2.279,1.36,3.66,2.133
			c1.418,0.795,2.763,1.631,4.033,2.509c1.271,0.878,2.385,1.851,3.343,2.917c0.957,1.066,1.717,2.248,2.279,3.544
			c0.562,1.297,0.843,2.781,0.843,4.454c0,2.217-0.383,4.093-1.146,5.63c-0.765,1.537-1.796,2.787-3.095,3.749
			c-1.298,0.962-2.794,1.658-4.488,2.086c-1.695,0.428-3.48,0.643-5.359,0.643c-0.626,0-1.399-0.058-2.32-0.173
			s-1.86-0.282-2.817-0.501c-0.958-0.22-1.865-0.491-2.722-0.816C1995.639-317.132,1994.953-317.493,1994.438-317.891z"/>
	</g>
</g>
<g>
	<polygon fill="#FFFFFF" points="1065.084,-399.994 1151.216,-333.994 1110.582,-445.603 	"/>
	<polygon fill="#FFFFFF" points="1117.332,-445.603 1137.832,-388.424 1254.52,-445.603 	"/>
	<polygon fill="#FFFFFF" points="1140.082,-383.494 1255.707,-440.816 1255.707,-383.494 	"/>
	<polygon fill="#FFFFFF" points="1065.084,-392.595 1173.352,-308.243 1065.084,-212.628 	"/>
	<polygon fill="#FFFFFF" points="1114.832,-451.911 1254.52,-451.911 1066.975,-494.504 	"/>
</g>
<g>
	<polygon fill="#395EA3" points="1066.58,-54.502 1152.712,11.498 1112.078,-100.11 	"/>
	<polygon fill="#395EA3" points="1118.828,-100.11 1139.328,-42.932 1256.016,-100.11 	"/>
	<polygon fill="#395EA3" points="1141.578,-38.002 1257.203,-95.324 1257.203,-38.002 	"/>
	<polygon fill="#395EA3" points="1066.58,-47.103 1174.848,37.249 1066.58,132.864 	"/>
	<polygon fill="#395EA3" points="1116.328,-106.419 1256.016,-106.419 1068.471,-149.012 	"/>
</g>
<rect x="-0.499" y="1.495" fill="#FFFFFF" width="636" height="325.27"/>
<polygon fill="#395EA3" points="26.598,116.995 112.729,182.995 72.096,71.386 "/>
<polygon fill="#395EA3" points="78.846,71.386 99.346,128.565 216.033,71.386 "/>
<polygon fill="#395EA3" points="101.596,133.495 217.221,76.173 217.221,133.495 "/>
<polygon fill="#395EA3" points="26.598,124.395 134.865,208.746 26.598,304.361 "/>
<polygon fill="#395EA3" points="76.346,65.079 216.033,65.079 28.488,22.485 "/>
<g>
	<path fill="#395EA3" d="M266.2,189.816c-1.105-0.849-2.7-1.272-4.783-1.272c-2.7,0-4.957,1.272-6.77,3.818
		c-1.813,2.546-2.72,6.018-2.72,10.415v20.136h-6.326v-39.5h6.326v8.139h0.154c0.899-2.777,2.276-4.943,4.128-6.499
		s3.921-2.334,6.21-2.334c1.646,0,2.905,0.181,3.78,0.54V189.816z"/>
	<path fill="#395EA3" d="M301.341,222.913h-6.326v-6.172h-0.154c-2.752,4.732-6.802,7.098-12.15,7.098
		c-3.935,0-7.015-1.041-9.238-3.125c-2.225-2.082-3.337-4.847-3.337-8.293c0-7.381,4.346-11.675,13.038-12.884l11.842-1.659
		c0-6.711-2.713-10.067-8.139-10.067c-4.758,0-9.053,1.62-12.884,4.86v-6.48c3.883-2.469,8.357-3.703,13.424-3.703
		c9.283,0,13.925,4.912,13.925,14.735V222.913z M295.015,202.932l-9.527,1.312c-2.932,0.412-5.144,1.138-6.635,2.18
		c-1.492,1.041-2.237,2.887-2.237,5.535c0,1.929,0.688,3.504,2.063,4.726c1.375,1.222,3.208,1.832,5.497,1.832
		c3.138,0,5.729-1.1,7.772-3.298c2.045-2.199,3.066-4.982,3.066-8.352V202.932z"/>
	<path fill="#395EA3" d="M346.049,222.913h-8.872l-17.436-18.979h-0.154v18.979h-6.326v-58.479h6.326v37.07h0.154l16.587-18.092
		h8.293l-18.322,19.056L346.049,222.913z"/>
	<path fill="#395EA3" d="M367.457,223.839c-5.838,0-10.499-1.845-13.983-5.535c-3.484-3.689-5.227-8.583-5.227-14.678
		c0-6.635,1.813-11.816,5.439-15.545c3.625-3.729,8.524-5.594,14.696-5.594c5.889,0,10.485,1.813,13.79,5.439
		c3.305,3.625,4.957,8.653,4.957,15.082c0,6.301-1.781,11.348-5.343,15.141S373.448,223.839,367.457,223.839z M367.92,187.811
		c-4.063,0-7.278,1.383-9.644,4.146c-2.366,2.765-3.549,6.577-3.549,11.438c0,4.681,1.195,8.37,3.588,11.071
		c2.391,2.699,5.593,4.05,9.604,4.05c4.089,0,7.232-1.324,9.432-3.974c2.198-2.648,3.298-6.416,3.298-11.302
		c0-4.938-1.1-8.743-3.298-11.418C375.152,189.147,372.009,187.811,367.92,187.811z"/>
	<path fill="#395EA3" d="M430.796,173.461h-15.97v49.452h-6.48v-49.452h-15.931v-5.863h38.381V173.461z"/>
	<path fill="#395EA3" d="M441.867,173.384c-1.132,0-2.097-0.386-2.894-1.157s-1.195-1.749-1.195-2.932s0.398-2.166,1.195-2.951
		c0.797-0.784,1.762-1.177,2.894-1.177c1.157,0,2.141,0.393,2.951,1.177c0.81,0.785,1.215,1.769,1.215,2.951
		c0,1.132-0.405,2.097-1.215,2.894C444.008,172.985,443.024,173.384,441.867,173.384z M444.953,222.913h-6.326v-39.5h6.326V222.913z
		"/>
	<path fill="#395EA3" d="M484.685,221.101c-3.035,1.825-6.635,2.738-10.801,2.738c-5.632,0-10.178-1.832-13.636-5.497
		c-3.459-3.664-5.188-8.415-5.188-14.253c0-6.506,1.864-11.732,5.594-15.681c3.728-3.946,8.704-5.921,14.928-5.921
		c3.472,0,6.531,0.643,9.181,1.929v6.48c-2.932-2.058-6.069-3.086-9.412-3.086c-4.038,0-7.349,1.446-9.933,4.34
		c-2.585,2.893-3.877,6.692-3.877,11.398c0,4.629,1.215,8.28,3.646,10.955c2.43,2.675,5.689,4.012,9.778,4.012
		c3.445,0,6.686-1.144,9.721-3.433V221.101z"/>
</g>
<g>
	<path fill="#395EA3" d="M252.474,252.752h-14.822c0.055,2.338,0.684,4.143,1.886,5.414c1.203,1.271,2.856,1.907,4.962,1.907
		c2.364,0,4.537-0.779,6.519-2.338v3.158c-1.845,1.34-4.284,2.01-7.318,2.01c-2.966,0-5.296-0.953-6.991-2.861
		c-1.694-1.906-2.542-4.59-2.542-8.049c0-3.268,0.926-5.93,2.778-7.988c1.852-2.057,4.151-3.086,6.898-3.086
		s4.872,0.889,6.376,2.666c1.503,1.777,2.255,4.245,2.255,7.403V252.752z M249.029,249.901c-0.014-1.941-0.481-3.452-1.404-4.532
		s-2.204-1.62-3.844-1.62c-1.586,0-2.932,0.567-4.039,1.702c-1.106,1.135-1.79,2.618-2.05,4.45H249.029z"/>
	<path fill="#395EA3" d="M256.286,261.652v-3.609c1.831,1.354,3.848,2.03,6.048,2.03c2.952,0,4.428-0.984,4.428-2.953
		c0-0.561-0.126-1.035-0.379-1.426c-0.253-0.389-0.595-0.734-1.025-1.035c-0.43-0.301-0.936-0.57-1.517-0.811
		c-0.581-0.238-1.206-0.488-1.876-0.748c-0.93-0.369-1.746-0.741-2.449-1.117c-0.704-0.376-1.292-0.801-1.764-1.271
		c-0.472-0.473-0.827-1.009-1.065-1.61c-0.239-0.602-0.359-1.306-0.359-2.112c0-0.984,0.226-1.855,0.677-2.615
		c0.451-0.758,1.052-1.395,1.804-1.906c0.752-0.514,1.609-0.899,2.573-1.159s1.958-0.39,2.982-0.39c1.817,0,3.444,0.314,4.88,0.943
		v3.404c-1.545-1.012-3.321-1.518-5.33-1.518c-0.629,0-1.196,0.072-1.702,0.215c-0.506,0.145-0.939,0.346-1.302,0.605
		s-0.643,0.571-0.841,0.934s-0.297,0.762-0.297,1.199c0,0.547,0.099,1.005,0.297,1.374s0.489,0.697,0.872,0.984
		c0.382,0.287,0.847,0.547,1.394,0.779s1.169,0.485,1.865,0.759c0.93,0.355,1.764,0.722,2.502,1.098
		c0.737,0.376,1.366,0.799,1.886,1.271c0.52,0.471,0.919,1.015,1.199,1.63s0.42,1.347,0.42,2.194c0,1.039-0.229,1.941-0.687,2.707
		s-1.069,1.401-1.835,1.907s-1.646,0.882-2.645,1.128s-2.043,0.369-3.137,0.369C259.744,262.903,257.872,262.486,256.286,261.652z"
		/>
	<path fill="#395EA3" d="M290.399,262.411h-3.361v-3.281h-0.082c-1.463,2.516-3.615,3.773-6.458,3.773
		c-2.091,0-3.728-0.554-4.91-1.661c-1.182-1.107-1.773-2.577-1.773-4.409c0-3.924,2.31-6.207,6.93-6.85l6.294-0.882
		c0-3.568-1.442-5.353-4.326-5.353c-2.528,0-4.811,0.861-6.847,2.584v-3.445c2.063-1.313,4.441-1.969,7.134-1.969
		c4.934,0,7.4,2.611,7.4,7.834V262.411z M287.038,251.788l-5.064,0.697c-1.558,0.219-2.733,0.605-3.525,1.158
		c-0.793,0.555-1.189,1.535-1.189,2.943c0,1.025,0.365,1.863,1.097,2.512c0.731,0.65,1.705,0.975,2.922,0.975
		c1.667,0,3.044-0.584,4.131-1.754c1.086-1.168,1.63-2.648,1.63-4.439V251.788z"/>
	<path fill="#395EA3" d="M307.682,244.815c-0.588-0.451-1.436-0.677-2.542-0.677c-1.436,0-2.635,0.677-3.598,2.03
		c-0.964,1.354-1.445,3.199-1.445,5.537v10.705h-3.362v-21h3.362v4.327h0.082c0.478-1.477,1.209-2.628,2.193-3.456
		c0.983-0.826,2.084-1.24,3.301-1.24c0.874,0,1.544,0.096,2.009,0.287V244.815z"/>
	<path fill="#395EA3" d="M322.278,244.815c-0.588-0.451-1.436-0.677-2.542-0.677c-1.436,0-2.635,0.677-3.598,2.03
		c-0.964,1.354-1.445,3.199-1.445,5.537v10.705h-3.362v-21h3.362v4.327h0.082c0.478-1.477,1.209-2.628,2.193-3.456
		c0.983-0.826,2.084-1.24,3.301-1.24c0.874,0,1.544,0.096,2.009,0.287V244.815z"/>
	<path fill="#395EA3" d="M334.148,262.903c-3.103,0-5.58-0.98-7.432-2.943c-1.853-1.961-2.778-4.563-2.778-7.803
		c0-3.527,0.964-6.282,2.891-8.265c1.928-1.982,4.531-2.974,7.811-2.974c3.13,0,5.573,0.964,7.329,2.892s2.635,4.601,2.635,8.019
		c0,3.35-0.946,6.033-2.84,8.049C339.871,261.896,337.332,262.903,334.148,262.903z M334.395,243.749
		c-2.16,0-3.868,0.735-5.126,2.205c-1.257,1.47-1.886,3.496-1.886,6.08c0,2.488,0.636,4.45,1.906,5.886
		c1.271,1.436,2.973,2.153,5.105,2.153c2.173,0,3.844-0.704,5.012-2.112c1.169-1.408,1.753-3.411,1.753-6.009
		c0-2.625-0.584-4.648-1.753-6.07C338.238,244.46,336.567,243.749,334.395,243.749z"/>
	<path fill="#395EA3" d="M353.337,262.411h-3.362v-31.09h3.362V262.411z"/>
	<path fill="#395EA3" d="M363.505,262.411h-3.362v-31.09h3.362V262.411z"/>
	<path fill="#395EA3" d="M379.086,262.903c-3.103,0-5.58-0.98-7.432-2.943c-1.853-1.961-2.778-4.563-2.778-7.803
		c0-3.527,0.964-6.282,2.891-8.265c1.928-1.982,4.531-2.974,7.811-2.974c3.13,0,5.573,0.964,7.329,2.892s2.635,4.601,2.635,8.019
		c0,3.35-0.946,6.033-2.84,8.049C384.809,261.896,382.27,262.903,379.086,262.903z M379.332,243.749
		c-2.16,0-3.868,0.735-5.126,2.205c-1.257,1.47-1.886,3.496-1.886,6.08c0,2.488,0.636,4.45,1.906,5.886
		c1.271,1.436,2.973,2.153,5.105,2.153c2.173,0,3.844-0.704,5.012-2.112c1.169-1.408,1.753-3.411,1.753-6.009
		c0-2.625-0.584-4.648-1.753-6.07C383.176,244.46,381.505,243.749,379.332,243.749z"/>
	<path fill="#395EA3" d="M413.178,233.003v2.953h-2.87v23.502h2.87v2.953h-9.184v-2.953h2.87v-23.502h-2.87v-2.953H413.178z"/>
	<path fill="#395EA3" d="M435.012,262.411h-3.362v-11.977c0-4.457-1.627-6.686-4.88-6.686c-1.681,0-3.071,0.633-4.172,1.896
		c-1.1,1.266-1.649,2.861-1.649,4.789v11.977h-3.362v-21h3.362v3.486h0.082c1.585-2.652,3.881-3.979,6.888-3.979
		c2.296,0,4.052,0.742,5.269,2.225c1.217,1.484,1.825,3.627,1.825,6.43V262.411z"/>
	<path fill="#395EA3" d="M451.719,234.274c-0.656-0.369-1.401-0.554-2.234-0.554c-2.351,0-3.526,1.483-3.526,4.45v3.24h4.92v2.871
		h-4.92v18.129h-3.342v-18.129h-3.587v-2.871h3.587v-3.404c0-2.201,0.636-3.94,1.907-5.219c1.271-1.279,2.856-1.918,4.756-1.918
		c1.025,0,1.838,0.123,2.439,0.369V234.274z"/>
	<path fill="#395EA3" d="M463.261,262.903c-3.103,0-5.58-0.98-7.432-2.943c-1.853-1.961-2.778-4.563-2.778-7.803
		c0-3.527,0.964-6.282,2.891-8.265c1.928-1.982,4.531-2.974,7.811-2.974c3.13,0,5.573,0.964,7.329,2.892s2.635,4.601,2.635,8.019
		c0,3.35-0.946,6.033-2.84,8.049C468.983,261.896,466.444,262.903,463.261,262.903z M463.507,243.749
		c-2.16,0-3.868,0.735-5.126,2.205c-1.257,1.47-1.886,3.496-1.886,6.08c0,2.488,0.636,4.45,1.906,5.886
		c1.271,1.436,2.973,2.153,5.105,2.153c2.173,0,3.844-0.704,5.012-2.112c1.169-1.408,1.753-3.411,1.753-6.009
		c0-2.625-0.584-4.648-1.753-6.07C467.351,244.46,465.68,243.749,463.507,243.749z"/>
	<path fill="#395EA3" d="M490.035,244.815c-0.588-0.451-1.436-0.677-2.542-0.677c-1.436,0-2.635,0.677-3.598,2.03
		c-0.964,1.354-1.445,3.199-1.445,5.537v10.705h-3.362v-21h3.362v4.327h0.082c0.478-1.477,1.209-2.628,2.193-3.456
		c0.983-0.826,2.084-1.24,3.301-1.24c0.874,0,1.544,0.096,2.009,0.287V244.815z"/>
	<path fill="#395EA3" d="M523.409,262.411h-3.362v-12.059c0-2.324-0.358-4.006-1.076-5.045s-1.924-1.559-3.618-1.559
		c-1.436,0-2.655,0.656-3.659,1.969c-1.005,1.313-1.507,2.885-1.507,4.717v11.977h-3.362v-12.469c0-4.129-1.593-6.193-4.776-6.193
		c-1.477,0-2.693,0.619-3.649,1.855c-0.957,1.238-1.435,2.848-1.435,4.83v11.977h-3.362v-21h3.362v3.322h0.082
		c1.489-2.543,3.662-3.814,6.519-3.814c1.436,0,2.686,0.4,3.752,1.199c1.065,0.801,1.797,1.85,2.193,3.148
		c1.559-2.898,3.882-4.348,6.971-4.348c4.619,0,6.929,2.851,6.929,8.552V262.411z"/>
	<path fill="#395EA3" d="M544.791,262.411h-3.361v-3.281h-0.082c-1.463,2.516-3.615,3.773-6.458,3.773
		c-2.091,0-3.728-0.554-4.91-1.661c-1.182-1.107-1.773-2.577-1.773-4.409c0-3.924,2.31-6.207,6.93-6.85l6.294-0.882
		c0-3.568-1.442-5.353-4.326-5.353c-2.528,0-4.811,0.861-6.847,2.584v-3.445c2.063-1.313,4.441-1.969,7.134-1.969
		c4.934,0,7.4,2.611,7.4,7.834V262.411z M541.43,251.788l-5.064,0.697c-1.558,0.219-2.733,0.605-3.525,1.158
		c-0.793,0.555-1.189,1.535-1.189,2.943c0,1.025,0.365,1.863,1.097,2.512c0.731,0.65,1.705,0.975,2.922,0.975
		c1.667,0,3.044-0.584,4.131-1.754c1.086-1.168,1.63-2.648,1.63-4.439V251.788z M541.88,230.706l-5.371,6.727h-2.604l4.572-6.727
		H541.88z"/>
	<path fill="#395EA3" d="M560.864,262.206c-0.793,0.438-1.838,0.656-3.137,0.656c-3.676,0-5.515-2.051-5.515-6.152v-12.428h-3.607
		v-2.871h3.607v-5.127l3.362-1.087v6.214h5.289v2.871h-5.289v11.833c0,1.408,0.239,2.413,0.718,3.015s1.271,0.902,2.378,0.902
		c0.848,0,1.579-0.232,2.193-0.697V262.206z"/>
	<path fill="#395EA3" d="M567.076,236.079c-0.602,0-1.114-0.205-1.537-0.615c-0.424-0.41-0.636-0.93-0.636-1.559
		s0.212-1.152,0.636-1.568c0.423-0.418,0.936-0.626,1.537-0.626c0.615,0,1.138,0.208,1.568,0.626
		c0.431,0.416,0.646,0.939,0.646,1.568c0,0.602-0.215,1.114-0.646,1.538S567.691,236.079,567.076,236.079z M568.717,262.411h-3.362
		v-21h3.362V262.411z"/>
	<path fill="#395EA3" d="M589.832,261.447c-1.613,0.971-3.526,1.456-5.74,1.456c-2.993,0-5.409-0.975-7.247-2.922
		c-1.839-1.949-2.758-4.475-2.758-7.578c0-3.459,0.991-6.237,2.973-8.336s4.626-3.148,7.934-3.148c1.846,0,3.472,0.342,4.88,1.025
		v3.445c-1.559-1.094-3.226-1.641-5.003-1.641c-2.146,0-3.905,0.77-5.278,2.307c-1.374,1.539-2.061,3.559-2.061,6.061
		c0,2.461,0.646,4.402,1.938,5.824c1.291,1.422,3.023,2.133,5.197,2.133c1.831,0,3.553-0.608,5.166-1.825V261.447z"/>
	<path fill="#395EA3" d="M603.69,262.903c-3.103,0-5.58-0.98-7.432-2.943c-1.853-1.961-2.778-4.563-2.778-7.803
		c0-3.527,0.964-6.282,2.891-8.265c1.928-1.982,4.531-2.974,7.811-2.974c3.13,0,5.573,0.964,7.329,2.892s2.635,4.601,2.635,8.019
		c0,3.35-0.946,6.033-2.84,8.049C609.413,261.896,606.874,262.903,603.69,262.903z M603.937,243.749
		c-2.16,0-3.868,0.735-5.126,2.205c-1.257,1.47-1.886,3.496-1.886,6.08c0,2.488,0.636,4.45,1.906,5.886
		c1.271,1.436,2.973,2.153,5.105,2.153c2.173,0,3.844-0.704,5.012-2.112c1.169-1.408,1.753-3.411,1.753-6.009
		c0-2.625-0.584-4.648-1.753-6.07C607.78,244.46,606.109,243.749,603.937,243.749z"/>
</g>
<g>
	<path fill="#395EA3" d="M149.246,263.396V153.562h29.197c37.259,0,55.888,17.846,55.888,53.539c0,16.953-5.174,30.573-15.52,40.862
		c-10.348,10.29-24.196,15.434-41.548,15.434H149.246z M161.633,165.203v86.551h15.778c13.861,0,24.65-3.854,32.368-11.565
		c7.716-7.71,11.575-18.637,11.575-32.782c0-28.135-14.402-42.203-43.206-42.203H161.633z"/>
</g>
<g>
	<path fill="#395EA3" d="M496.873,221.966v-6.211c0.626,0.628,1.376,1.192,2.251,1.694s1.796,0.925,2.763,1.271
		c0.967,0.345,1.938,0.611,2.914,0.8s1.879,0.282,2.707,0.282c2.854,0,4.986-0.602,6.396-1.804s2.113-2.933,2.113-5.19
		c0-1.213-0.234-2.27-0.704-3.169c-0.47-0.898-1.119-1.72-1.948-2.462c-0.828-0.742-1.809-1.453-2.941-2.133
		s-2.354-1.396-3.66-2.148c-1.382-0.795-2.671-1.6-3.868-2.416c-1.197-0.814-2.237-1.714-3.121-2.697
		c-0.884-0.982-1.579-2.096-2.086-3.34s-0.76-2.703-0.76-4.376c0-2.05,0.396-3.832,1.188-5.349c0.791-1.516,1.832-2.765,3.121-3.748
		c1.289-0.982,2.758-1.715,4.406-2.195s3.329-0.722,5.042-0.722c3.903,0,6.749,0.533,8.535,1.6v5.929
		c-2.339-1.84-5.341-2.761-9.005-2.761c-1.014,0-2.026,0.12-3.039,0.36c-1.013,0.241-1.916,0.633-2.707,1.177
		c-0.792,0.544-1.437,1.245-1.934,2.102c-0.497,0.858-0.746,1.903-0.746,3.137c0,1.15,0.188,2.144,0.566,2.979
		c0.377,0.837,0.935,1.6,1.671,2.29s1.635,1.359,2.693,2.007c1.059,0.648,2.279,1.36,3.66,2.134
		c1.418,0.795,2.763,1.631,4.033,2.509c1.271,0.879,2.385,1.852,3.343,2.918c0.957,1.066,1.717,2.248,2.279,3.544
		c0.562,1.297,0.843,2.781,0.843,4.454c0,2.217-0.383,4.094-1.146,5.63c-0.765,1.537-1.796,2.787-3.095,3.749
		c-1.298,0.961-2.794,1.657-4.488,2.086c-1.695,0.428-3.48,0.643-5.359,0.643c-0.626,0-1.399-0.059-2.32-0.173
		s-1.86-0.282-2.817-0.501c-0.958-0.221-1.865-0.492-2.722-0.816S497.389,222.363,496.873,221.966z"/>
	<path fill="#395EA3" d="M529.746,224.476c-0.848,0-1.57-0.346-2.168-1.035c-0.6-0.69-0.898-1.516-0.898-2.479
		c0-0.961,0.299-1.793,0.898-2.493c0.598-0.7,1.32-1.051,2.168-1.051c0.865,0,1.603,0.351,2.21,1.051s0.912,1.532,0.912,2.493
		c0,0.963-0.305,1.788-0.912,2.479C531.349,224.13,530.611,224.476,529.746,224.476z"/>
	<path fill="#395EA3" d="M571.707,223.785h-5.138l-4.199-12.609h-16.796l-3.95,12.609h-5.166l15.193-44.979h4.807L571.707,223.785z
		 M560.851,206.439l-6.216-19.165c-0.202-0.627-0.405-1.631-0.607-3.012h-0.11c-0.185,1.276-0.396,2.28-0.636,3.012l-6.16,19.165
		H560.851z"/>
	<path fill="#395EA3" d="M578.503,224.476c-0.848,0-1.57-0.346-2.168-1.035c-0.6-0.69-0.898-1.516-0.898-2.479
		c0-0.961,0.299-1.793,0.898-2.493c0.598-0.7,1.32-1.051,2.168-1.051c0.865,0,1.603,0.351,2.21,1.051s0.912,1.532,0.912,2.493
		c0,0.963-0.305,1.788-0.912,2.479C580.105,224.13,579.368,224.476,578.503,224.476z"/>
	<path fill="#395EA3" d="M587.951,221.966v-6.211c0.626,0.628,1.376,1.192,2.251,1.694s1.796,0.925,2.763,1.271
		c0.967,0.345,1.938,0.611,2.914,0.8s1.879,0.282,2.707,0.282c2.854,0,4.986-0.602,6.396-1.804s2.113-2.933,2.113-5.19
		c0-1.213-0.234-2.27-0.704-3.169c-0.47-0.898-1.119-1.72-1.948-2.462c-0.828-0.742-1.809-1.453-2.941-2.133
		s-2.354-1.396-3.66-2.148c-1.382-0.795-2.671-1.6-3.868-2.416c-1.197-0.814-2.237-1.714-3.121-2.697
		c-0.884-0.982-1.579-2.096-2.086-3.34s-0.76-2.703-0.76-4.376c0-2.05,0.396-3.832,1.188-5.349c0.791-1.516,1.832-2.765,3.121-3.748
		c1.289-0.982,2.758-1.715,4.406-2.195s3.329-0.722,5.042-0.722c3.903,0,6.749,0.533,8.535,1.6v5.929
		c-2.339-1.84-5.341-2.761-9.005-2.761c-1.014,0-2.026,0.12-3.039,0.36c-1.013,0.241-1.916,0.633-2.707,1.177
		c-0.792,0.544-1.437,1.245-1.934,2.102c-0.497,0.858-0.746,1.903-0.746,3.137c0,1.15,0.188,2.144,0.566,2.979
		c0.377,0.837,0.935,1.6,1.671,2.29s1.635,1.359,2.693,2.007c1.059,0.648,2.279,1.36,3.66,2.134
		c1.418,0.795,2.763,1.631,4.033,2.509c1.271,0.879,2.385,1.852,3.343,2.918c0.957,1.066,1.717,2.248,2.279,3.544
		c0.562,1.297,0.843,2.781,0.843,4.454c0,2.217-0.383,4.094-1.146,5.63c-0.765,1.537-1.796,2.787-3.095,3.749
		c-1.298,0.961-2.794,1.657-4.488,2.086c-1.695,0.428-3.48,0.643-5.359,0.643c-0.626,0-1.399-0.059-2.32-0.173
		s-1.86-0.282-2.817-0.501c-0.958-0.221-1.865-0.492-2.722-0.816S588.467,222.363,587.951,221.966z"/>
</g>
<g>
</g>
<g>
</g>
<g>
</g>
<g>
</g>
<g>
</g>
<g>
</g>
</svg>
